<?xml version="1.0" standalone="no"?>
<!DOCTYPE svg PUBLIC "-//W3C//DTD SVG 20010904//EN"
 "http://www.w3.org/TR/2001/REC-SVG-20010904/DTD/svg10.dtd">
<svg version="1.0" xmlns="http://www.w3.org/2000/svg"
 width="500.000000pt" height="500.000000pt" viewBox="0 0 500.000000 500.000000"
 preserveAspectRatio="xMidYMid meet">

<g transform="translate(0.000000,500.000000) scale(0.100000,-0.100000)"
fill="#000000" stroke="none">
<path d="M895 3120 c-11 -18 6 -29 65 -40 30 -6 57 -14 60 -18 4 -4 43 -102
89 -218 l82 -211 -46 -45 c-49 -49 -56 -75 -26 -102 18 -17 18 -19 3 -46 -16
-28 -16 -30 5 -52 19 -19 25 -20 49 -9 23 10 26 16 21 46 l-6 35 183 0 182 0
-4 -34 c-3 -27 0 -37 18 -46 17 -9 26 -8 46 5 27 17 29 27 14 56 -9 16 -7 19
15 19 18 0 25 5 25 20 0 19 -8 20 -257 22 -293 3 -300 6 -218 72 l45 38 198
15 c108 8 202 19 209 25 6 5 14 40 18 78 l7 68 36 -15 c49 -20 136 -19 168 2
32 21 54 71 47 107 -6 34 -31 56 -96 89 -29 14 -53 33 -55 42 -5 24 35 36 77
25 29 -8 37 -7 48 8 22 30 11 47 -37 62 -102 30 -192 -46 -156 -132 9 -23 31
-41 75 -64 41 -22 61 -39 61 -52 0 -33 -69 -42 -108 -14 -18 13 -26 13 -38 3
-13 -10 -14 -6 -12 32 l3 44 -135 6 c-74 4 -203 7 -286 8 l-152 1 -28 76 c-30
84 -35 88 -126 99 -39 5 -58 3 -63 -5z m305 -240 c0 -33 -3 -40 -20 -40 -13 0
-25 12 -35 36 -8 20 -15 38 -15 40 0 2 16 4 35 4 34 0 35 -1 35 -40z m100 -5
c0 -34 -1 -35 -40 -35 -39 0 -40 1 -40 35 0 34 1 35 40 35 39 0 40 -1 40 -35z
m90 0 c0 -34 -1 -35 -40 -35 -39 0 -40 1 -40 35 0 34 1 35 40 35 39 0 40 -1
40 -35z m90 0 c0 -34 -1 -35 -40 -35 -39 0 -40 1 -40 35 0 34 1 35 40 35 39 0
40 -1 40 -35z m90 0 c0 -33 -2 -35 -35 -35 -33 0 -35 2 -35 35 0 33 2 35 35
35 33 0 35 -2 35 -35z m80 0 c0 -32 -2 -35 -30 -35 -28 0 -30 3 -30 35 0 32 2
35 30 35 28 0 30 -3 30 -35z m-450 -92 l-1 -38 -14 34 c-18 41 -18 41 0 41 11
0 15 -11 15 -37z m100 2 c0 -34 -1 -35 -40 -35 -39 0 -40 1 -40 35 0 34 1 35
40 35 39 0 40 -1 40 -35z m90 0 c0 -34 -1 -35 -40 -35 -39 0 -40 1 -40 35 0
34 1 35 40 35 39 0 40 -1 40 -35z m90 0 c0 -34 -1 -35 -40 -35 -39 0 -40 1
-40 35 0 34 1 35 40 35 39 0 40 -1 40 -35z m90 0 c0 -33 -2 -35 -35 -35 -33 0
-35 2 -35 35 0 33 2 35 35 35 33 0 35 -2 35 -35z m70 0 c0 -31 -3 -35 -25 -35
-22 0 -25 4 -25 35 0 31 3 35 25 35 22 0 25 -4 25 -35z m-340 -91 c0 -35 -1
-35 -37 -32 -35 3 -38 6 -41 36 -3 31 -2 32 37 32 40 0 41 -1 41 -36z m90 7
c0 -21 -6 -30 -22 -35 -49 -13 -58 -8 -58 29 0 34 1 35 40 35 37 0 40 -2 40
-29z m90 -1 c0 -28 -2 -30 -40 -30 -38 0 -40 2 -40 30 0 28 2 30 40 30 38 0
40 -2 40 -30z m90 5 c0 -22 -4 -25 -35 -25 -31 0 -35 3 -35 25 0 22 4 25 35
25 31 0 35 -3 35 -25z m58 3 c-5 -34 -38 -37 -38 -4 0 20 5 26 21 26 15 0 20
-5 17 -22z m-448 -288 c0 -24 -26 -38 -42 -22 -16 16 -2 42 22 42 13 0 20 -7
20 -20z m434 11 c10 -16 -6 -42 -23 -39 -9 2 -17 13 -19 26 -3 16 2 22 17 22
11 0 22 -4 25 -9z"/>
<path d="M1145 2421 c-6 -11 9 -23 19 -14 9 9 7 23 -3 23 -6 0 -12 -4 -16 -9z"/>
<path d="M1582 2421 c2 -7 7 -12 11 -12 12 1 9 15 -3 20 -7 2 -11 -2 -8 -8z"/>
<path d="M1976 3098 c-6 -30 -26 -257 -26 -297 0 -29 3 -31 34 -31 40 0 46 10
47 88 1 31 4 71 8 87 6 27 10 20 41 -70 31 -89 38 -100 59 -100 20 0 27 11 57
94 18 51 35 95 38 98 2 3 7 -41 11 -96 l8 -101 82 0 82 0 9 33 c10 32 10 32
80 35 l71 3 9 -33 c9 -30 14 -33 53 -36 39 -3 43 -1 37 15 -4 10 -35 89 -69
176 l-62 158 -39 -3 -38 -3 -65 -163 c-36 -90 -67 -161 -69 -160 -1 2 -8 53
-13 113 -6 61 -13 134 -17 163 l-6 53 -41 -3 -42 -3 -35 -92 c-19 -51 -38 -93
-41 -93 -4 0 -22 42 -41 93 l-35 92 -41 3 c-36 3 -42 0 -46 -20z m537 -186
c-19 -2 -37 -2 -39 1 -2 2 4 26 13 53 l17 49 22 -50 21 -50 -34 -3z"/>
<path d="M2700 2946 l0 -176 40 0 39 0 3 66 3 66 50 -66 c49 -65 50 -66 98
-66 56 0 56 -1 -15 82 l-49 57 33 30 c28 25 33 36 33 75 0 36 -6 51 -28 73
-25 26 -35 28 -117 31 l-90 4 0 -176z m131 104 c30 -16 26 -68 -7 -80 -41 -16
-44 -13 -44 40 0 53 10 61 51 40z"/>
<path d="M2980 3085 c0 -35 0 -35 45 -35 l45 0 0 -140 0 -140 35 0 35 0 0 140
0 140 45 0 c45 0 45 0 45 35 l0 35 -125 0 -125 0 0 -35z"/>
<path d="M1883 2699 c-64 -19 -95 -100 -55 -148 9 -12 40 -34 67 -49 39 -21
50 -32 50 -52 0 -21 -5 -26 -32 -28 -17 -2 -45 4 -62 12 -16 9 -32 16 -35 16
-7 0 -39 -61 -34 -65 21 -18 79 -36 118 -37 88 -2 140 38 140 110 0 34 -30 65
-98 102 -26 14 -48 33 -50 42 -5 27 28 38 71 23 37 -13 38 -12 52 16 19 36 20
35 -12 47 -45 17 -86 21 -120 11z"/>
<path d="M2437 2696 c-80 -29 -122 -97 -115 -187 7 -100 74 -162 175 -162 97
0 173 78 173 178 0 122 -122 212 -233 171z m117 -91 c54 -58 30 -163 -40 -181
-93 -23 -151 110 -79 182 33 33 88 33 119 -1z"/>
<path d="M2060 2665 c0 -34 1 -35 40 -35 l40 0 0 -140 0 -140 40 0 40 0 0 140
0 140 40 0 c39 0 40 1 40 35 l0 35 -120 0 -120 0 0 -35z"/>
<path d="M2710 2526 l0 -176 35 0 35 0 0 65 c0 36 3 65 8 65 4 0 29 -30 56
-65 48 -65 49 -65 99 -65 47 0 49 1 35 18 -8 9 -34 41 -58 69 l-43 52 32 30
c41 38 44 105 7 148 -23 26 -30 28 -115 31 l-91 4 0 -176z m134 101 c29 -21
18 -69 -18 -78 -16 -5 -33 -6 -38 -3 -10 6 -11 78 -1 87 10 11 38 8 57 -6z"/>
<path d="M3010 2525 l0 -175 100 0 100 0 0 35 0 35 -60 0 -60 0 0 35 0 34 58
3 c56 3 57 3 60 36 l3 32 -60 0 -61 0 0 35 0 35 60 0 60 0 0 35 0 35 -100 0
-100 0 0 -175z"/>
</g>
</svg>
